<svg xmlns="http://www.w3.org/2000/svg" width="92" height="33">
  <defs>
    <linearGradient id="a" x1=".819" x2="0" y1="1" y2="1" gradientUnits="objectBoundingBox">
      <stop offset="0" stop-color="#88bf66"/>
      <stop offset="1" stop-color="#f3720c"/>
    </linearGradient>
  </defs>
  <path fill="#454545" d="M10.822 2.201a16.64 16.64 0 013.433.319 13.445 13.445 0 012.714.861l-.948 2.967a10.581 10.581 0 00-2.354-.8 11.539 11.539 0 00-2.387-.255 7.664 7.664 0 00-2.534.415 5.349 5.349 0 00-2.076 1.31 6.405 6.405 0 00-1.406 2.281 9.467 9.467 0 00-.523 3.331 8.027 8.027 0 001.585 5.346 5.614 5.614 0 004.528 1.866 7.689 7.689 0 002.55-.319V14.83h-3.4v-3.25h7.683v10.176a15.779 15.779 0 01-2.975.893 19.371 19.371 0 01-3.891.351 13.217 13.217 0 01-4.266-.67 9.615 9.615 0 01-3.433-1.994 9.339 9.339 0 01-2.288-3.253A11.135 11.135 0 010 12.63a11.368 11.368 0 01.834-4.482 9.217 9.217 0 012.272-3.27 9.767 9.767 0 013.416-1.994 13.04 13.04 0 014.3-.683zm24.358 13.94H24.814v.128a3.061 3.061 0 001.308 2.712 5.85 5.85 0 003.367.893 9.344 9.344 0 002.3-.255 12.388 12.388 0 001.814-.606l.785 2.967a11 11 0 01-2.223.718 14.536 14.536 0 01-3.171.3 11.57 11.57 0 01-3.314-.461 7.638 7.638 0 01-2.714-1.42 6.85 6.85 0 01-1.846-2.424 8.222 8.222 0 01-.687-3.509 9.348 9.348 0 01.556-3.3 7.173 7.173 0 011.586-2.536 7.264 7.264 0 012.468-1.643 8.368 8.368 0 013.2-.59 6.821 6.821 0 015.051 1.882 7.12 7.12 0 011.886 5.262zm-4.446-2.9a4.736 4.736 0 00-.147-1.18 2.783 2.783 0 00-.474-1 2.407 2.407 0 00-.817-.686 2.6 2.6 0 00-1.21-.255 2.9 2.9 0 00-2.158.861 3.8 3.8 0 00-1.014 2.329zm16.837-2.743h-4.154v7.018a1.8 1.8 0 00.507 1.483 2.134 2.134 0 001.357.4 7.329 7.329 0 001.34-.128 3.982 3.982 0 001.112-.351l.654 2.967a9.15 9.15 0 01-1.667.51 10.5 10.5 0 01-2.354.255 5.976 5.976 0 01-4.054-1.1 4.243 4.243 0 01-1.21-3.3V10.5H36.68V7.43h2.419V2.741h4.316V7.43h4.152zm5.131 12.151V0h1.7v22.649zm6.931 0V7.656h1.7v14.993zm.883-18.853a1.306 1.306 0 01-.9-.335 1.2 1.2 0 01-.376-.941 1.318 1.318 0 01.36-.989 1.216 1.216 0 01.883-.351 1.264 1.264 0 01.866.335 1.277 1.277 0 01.376 1 1.213 1.213 0 01-.36.957 1.239 1.239 0 01-.849.324zm7.748 13.366v5.487h-1.7V0h1.7v15.248l7.716-7.592h2.125l-6.473 6.316 6.767 8.677h-2.027l-5.852-7.688zM92 15.153H81.048v.447a5.986 5.986 0 001.553 4.386 5.668 5.668 0 004.234 1.579 11.224 11.224 0 003.989-.7l.392 1.276a9.781 9.781 0 01-2.043.558 14.2 14.2 0 01-2.436.207 9.2 9.2 0 01-2.893-.447 6.36 6.36 0 01-2.37-1.388 6.579 6.579 0 01-1.6-2.393 9.291 9.291 0 01-.594-3.494 9.822 9.822 0 01.49-3.19 6.867 6.867 0 011.406-2.44 6.294 6.294 0 012.158-1.547 6.876 6.876 0 012.779-.542 6.115 6.115 0 012.4.463 5.143 5.143 0 011.867 1.323 6.11 6.11 0 011.193 2.074 8.054 8.054 0 01.425 2.68zm-1.765-1.34a7.487 7.487 0 00-.229-1.834 4.667 4.667 0 00-.736-1.611 3.813 3.813 0 00-1.308-1.132 4.06 4.06 0 00-1.945-.431 4.531 4.531 0 00-3.318 1.308 5.92 5.92 0 00-1.586 3.7z" data-name="Path 1387"/>
  <path fill="url(#a)" d="M0 0h72v1.5H0z" data-name="- gradient" transform="translate(10 31.5)"/>
</svg>
